<svg width="20" height="20" viewBox="0 0 20 20" fill="none" xmlns="http://www.w3.org/2000/svg">
<path d="M1.44 4.23998C0.52 5.15998 0.52 14.84 1.44 15.76C2.36 16.72 17.64 16.72 18.56 15.76C19.48 14.84 19.48 5.15998 18.56 4.23998C17.64 3.27998 2.36 3.27998 1.44 4.23998ZM18.32 5.47998L18.44 6.39998H10.04C2.12 6.39998 1.6 6.35998 1.6 5.67998C1.6 5.27998 1.72 4.79998 1.88 4.63998C2.04 4.51998 5.76 4.43998 10.16 4.47998C18.16 4.59998 18.2 4.59998 18.32 5.47998ZM18.32 11.88L18.2 15.4H10H1.8L1.68 11.88L1.56 8.39998H10H18.44L18.32 11.88Z" fill="black"/>
<path d="M3.59998 9.9999C3.59998 10.2399 4.91998 10.3999 6.79998 10.3999C8.67998 10.3999 9.99998 10.2399 9.99998 9.9999C9.99998 9.7599 8.67998 9.5999 6.79998 9.5999C4.91998 9.5999 3.59998 9.7599 3.59998 9.9999Z" fill="black"/>
</svg>
