<svg width="21" height="21" viewBox="0 0 21 21" fill="none" xmlns="http://www.w3.org/2000/svg">
<path d="M3.60933 4.65932C2.69058 5.77495 2.03433 6.89057 2.23121 7.02182C2.55933 7.41557 6.56246 3.67495 6.56246 3.0187C6.56246 2.03432 5.18433 2.82182 3.60933 4.65932Z" fill="black"/>
<path d="M14.4375 3.0187C14.4375 3.67495 18.4406 7.41557 18.7687 7.02182C19.1625 6.62807 15.8156 2.62495 15.0281 2.62495C14.7 2.62495 14.4375 2.82182 14.4375 3.0187Z" fill="black"/>
<path d="M7.0875 4.9875C5.11875 6.0375 3.28125 8.99063 3.28125 11.1563C3.28125 13.3875 5.11875 16.275 7.21875 17.3906C8.26875 17.9156 9.7125 18.375 10.5 18.375C13.9781 18.375 17.7187 14.6344 17.7187 11.1563C17.7187 8.925 15.8812 6.0375 13.7812 4.92188C11.4187 3.675 9.38437 3.675 7.0875 4.9875ZM14.5031 7.15313C17.0625 9.77813 17.0625 12.5344 14.5031 15.1594C13.1906 16.4719 11.9437 17.0625 10.5 17.0625C9.05625 17.0625 7.80937 16.4719 6.49687 15.1594C3.9375 12.5344 3.9375 9.77813 6.49687 7.15313C7.80937 5.84063 9.05625 5.25 10.5 5.25C11.9437 5.25 13.1906 5.84063 14.5031 7.15313Z" fill="black"/>
<path d="M9.84375 9.38441C9.84375 10.7625 10.3688 12.075 11.1563 12.7969C12.7969 14.3063 13.7156 13.5844 12.2719 11.9438C11.6156 11.2875 11.1563 9.90941 11.1563 8.99066C11.1563 8.00629 10.8938 7.21879 10.5 7.21879C10.1719 7.21879 9.84375 8.20316 9.84375 9.38441Z" fill="black"/>
</svg>
