<svg width="19" height="19" viewBox="0 0 19 19" fill="none" xmlns="http://www.w3.org/2000/svg">
<path d="M5.62085 2.69175C-1.26665 6.49175 1.66251 17.4167 9.50001 17.4167C13.5375 17.4167 17.4167 13.5376 17.4167 9.57925C17.4167 3.64175 10.8458 -0.237419 5.62085 2.69175ZM13.8542 5.14592C16.4667 7.67925 16.4667 11.3209 13.8542 13.8542C9.97501 17.8126 3.16668 15.0417 3.16668 9.50008C3.16668 6.25425 6.25418 3.16675 9.50001 3.16675C11.0042 3.16675 12.6667 3.87925 13.8542 5.14592Z" fill="black"/>
<path d="M8.70837 7.52091C8.70837 8.15425 8.15421 8.70841 7.52087 8.70841C6.88754 8.70841 6.33337 9.02508 6.33337 9.50008C6.33337 9.89591 6.88754 10.2917 7.52087 10.2917C8.15421 10.2917 8.70837 10.8459 8.70837 11.4792C8.70837 12.1126 9.10421 12.6667 9.50004 12.6667C9.97504 12.6667 10.2917 12.1126 10.2917 11.4792C10.2917 10.8459 10.8459 10.2917 11.4792 10.2917C12.1125 10.2917 12.6667 9.89591 12.6667 9.50008C12.6667 9.02508 12.1125 8.70841 11.4792 8.70841C10.8459 8.70841 10.2917 8.15425 10.2917 7.52091C10.2917 6.88758 9.97504 6.33342 9.50004 6.33342C9.10421 6.33342 8.70837 6.88758 8.70837 7.52091Z" fill="black"/>
</svg>
