<svg width="10" height="10" viewBox="0 0 10 10" fill="none" xmlns="http://www.w3.org/2000/svg">
<g clip-path="url(#clip0_110_52)">
<path d="M1.20833 1.20836C0.5 1.95836 0 2.87503 0 3.54169C0 5.79169 3.20833 7.79169 5 6.66669C5.625 6.29169 6.83333 6.91669 6.45833 7.50003C6.375 7.66669 6.83333 8.33336 7.5 8.95836C8.66667 10.0834 8.79167 10.125 9.45833 9.45836C10.125 8.79169 10.0833 8.66669 8.95833 7.50003C8.33333 6.83336 7.66667 6.37503 7.5 6.45836C6.91667 6.83336 6.29167 5.62502 6.66667 5.00002C7.79167 3.20836 5.79167 2.47955e-05 3.54167 2.47955e-05C2.875 2.47955e-05 1.95833 0.500025 1.20833 1.20836ZM5.41667 1.66669C6.5 2.75003 6.5 4.33336 5.41667 5.41669C3.75 7.08336 0.833333 5.87503 0.833333 3.54169C0.833333 2.20836 2.20833 0.833359 3.54167 0.833359C4.125 0.833359 4.95833 1.20836 5.41667 1.66669Z" fill="black"/>
</g>
<defs>
<clipPath id="clip0_110_52">
<rect width="10" height="10" fill="white"/>
</clipPath>
</defs>
</svg>
