<svg width="18" height="18" viewBox="0 0 18 18" fill="none" xmlns="http://www.w3.org/2000/svg">
<path d="M6.5999 3.0001C5.9399 3.6601 5.3999 4.8601 5.3999 5.7001C5.3999 7.5001 7.3199 9.6001 8.9999 9.6001C10.6799 9.6001 12.5999 7.5001 12.5999 5.7001C12.5999 3.9001 10.6799 1.8001 8.9999 1.8001C8.3399 1.8001 7.2599 2.3401 6.5999 3.0001Z" fill="black"/>
<path d="M4.79995 12.48C3.65995 13.02 2.69995 13.92 2.69995 14.4C2.69995 15.12 3.77995 15.3 8.99995 15.3C14.22 15.3 15.3 15.12 15.3 14.4C15.3 13.2 11.58 11.4 8.99995 11.4C7.85995 11.4 5.93995 11.88 4.79995 12.48Z" fill="black"/>
</svg>
